<?xml version="1.0" encoding="utf-8"?>
<!-- Generator: Adobe Illustrator 15.0.0, SVG Export Plug-In . SVG Version: 6.00 Build 0)  -->
<!DOCTYPE svg PUBLIC "-//W3C//DTD SVG 1.1//EN" "http://www.w3.org/Graphics/SVG/1.1/DTD/svg11.dtd">
<svg version="1.1" id="Layer_1" xmlns="http://www.w3.org/2000/svg" xmlns:xlink="http://www.w3.org/1999/xlink" x="0px" y="0px"
	 width="38px" height="38px" viewBox="0 0 38 38" enable-background="new 0 0 38 38" xml:space="preserve">
<path fill="none" stroke="#231F20" stroke-width="2" stroke-miterlimit="10" d="M31,19c0,6.627-5.373,12-12,12S7,25.627,7,19
	S12.373,7,19,7S31,12.373,31,19z M15.291,7.585C14.302,4.541,17.953,4.047,19,3c1.048,1.047,4.697,1.542,3.709,4.585 M22.709,30.415
	C23.698,33.459,20.047,33.953,19,35c-1.048-1.047-4.697-1.543-3.709-4.585 M9.289,11.946C6.7,10.064,9.364,7.519,9.595,6.056
	c1.463,0.231,4.707-1.513,5.696,1.529 M28.71,26.055c2.59,1.882-0.074,4.428-0.306,5.89c-1.463-0.23-4.707,1.513-5.695-1.529
	 M6.997,19.001c-3.201,0-2.541-3.626-3.214-4.945c1.32-0.673,2.919-3.991,5.507-2.111 M31.002,19c3.201,0,2.543,3.626,3.215,4.944
	c-1.319,0.674-2.919,3.991-5.507,2.11 M9.29,26.056c-2.589,1.882-4.187-1.439-5.507-2.11C4.455,22.624,3.799,19.001,6.998,19
	 M28.71,11.946c2.59-1.882,4.188,1.438,5.507,2.11c-0.671,1.32-0.016,4.945-3.215,4.944 M15.291,30.416
	c-0.989,3.044-4.233,1.296-5.696,1.529c-0.233-1.464-2.893-4.01-0.306-5.891 M22.709,7.586c0.988-3.045,4.233-1.298,5.695-1.53
	c0.233,1.462,2.894,4.01,0.305,5.89 M19,31L8.607,13 M29.389,13.001L8.607,13 M29.389,13.001L19,31"/>
</svg>
